<?xml version="1.0" encoding="UTF-8" standalone="no"?>
<!DOCTYPE svg PUBLIC "-//W3C//DTD SVG 1.1//EN" "http://www.w3.org/Graphics/SVG/1.1/DTD/svg11.dtd">
<svg width="100%" height="100%" viewBox="0 0 1700 850" version="1.1" xmlns="http://www.w3.org/2000/svg" xmlns:xlink="http://www.w3.org/1999/xlink" xml:space="preserve" xmlns:serif="http://www.serif.com/" style="fill-rule:evenodd;clip-rule:evenodd;stroke-linejoin:round;stroke-miterlimit:2;">
    <g id="Artboard1" transform="matrix(2.45374,0,0,1.0625,-1700,-637.5)">
        <rect x="692.82" y="600" width="692.82" height="800" style="fill:none;"/>
        <g transform="matrix(0.407529,0,0,0.943502,427.837,56.4983)">
            <g id="bg" transform="matrix(1,0,0,0.997506,-0.179682,2.49377)">
                <path d="M692.82,800L1039.23,600L1385.64,800.008L1385.64,1200L1039.23,1400L692.827,1200L692.82,800Z" style="fill:rgb(140,43,229);"/>
            </g>
            <g transform="matrix(0.866051,-0.498768,1.00003,0.575927,-0.210168,2.4645)">
                <rect x="-400" y="1039.23" width="400" height="346.41" style="fill:rgb(140,43,229);"/>
            </g>
            <g transform="matrix(0.866051,-0.498768,5.55128e-17,1.15185,-0.210168,2.4645)">
                <rect x="1200" y="1385.64" width="400" height="346.41" style="fill:rgb(179,43,229);"/>
            </g>
            <g transform="matrix(0.866051,0.498768,-5.55128e-17,1.15185,-0.210168,2.4645)">
                <rect x="800" y="346.41" width="400" height="346.41" style="fill:rgb(124,16,187);"/>
            </g>
        </g>
        <g transform="matrix(1.76471,2.35294,1.94833e-17,4.70588,738.34,924.699)">
            <path d="M0,5.68L0.003,0L22.561,0.045L22.636,22.621L0,22.618L0.033,8.46L16.996,8.493L16.954,5.632L0,5.68ZM16.987,16.968L16.99,14.074L5.667,14.11L5.685,16.959L16.987,16.968Z" style="fill:white;"/>
            <path d="M25.367,31.059L25.367,25.379L47.925,25.424L48,48L25.364,47.997L25.4,33.839L42.357,33.872L42.315,31.011L25.367,31.059ZM42.348,42.347L42.354,39.453L31.033,39.492L31.051,42.338L42.348,42.347Z" style="fill:white;"/>
            <path d="M31.058,0.008L31.096,16.964L48,16.963L47.989,22.614L25.373,22.621L25.364,0L31.058,0.008Z" style="fill:white;fill-rule:nonzero;"/>
            <path d="M22.636,25.379L22.598,47.966L17.011,48L16.918,30.972L14.212,30.972L14.14,48L8.472,48L8.5,30.972L5.741,30.972L5.703,48L0.022,48L0,25.393L22.636,25.379Z" style="fill:white;fill-rule:nonzero;"/>
        </g>
        <g transform="matrix(0.279914,-0.373219,1.55384e-17,0.746438,390.454,250.733)">
            <g transform="matrix(186.362,0,0,186.362,1689.35,2136.98)">
                <path d="M0.567,-0.286C0.544,-0.183 0.476,-0.135 0.391,-0.135C0.285,-0.135 0.2,-0.221 0.2,-0.335C0.2,-0.449 0.285,-0.534 0.391,-0.534C0.477,-0.534 0.545,-0.487 0.566,-0.387L0.728,-0.428C0.696,-0.587 0.556,-0.685 0.391,-0.685C0.192,-0.685 0.035,-0.531 0.035,-0.335C0.035,-0.138 0.192,0.015 0.391,0.015C0.563,0.015 0.698,-0.083 0.729,-0.251L0.567,-0.286Z" style="fill:rgb(235,235,235);fill-rule:nonzero;"/>
            </g>
            <g transform="matrix(186.362,0,0,186.362,1831.73,2136.98)">
                <path d="M0.058,-0.67L0.058,-0L0.323,-0C0.544,-0 0.69,-0.136 0.69,-0.335C0.69,-0.534 0.544,-0.67 0.323,-0.67L0.058,-0.67ZM0.223,-0.143L0.223,-0.527L0.317,-0.527C0.442,-0.527 0.524,-0.451 0.524,-0.335C0.524,-0.219 0.442,-0.143 0.317,-0.143L0.223,-0.143Z" style="fill:rgb(235,235,235);fill-rule:nonzero;"/>
            </g>
            <g transform="matrix(186.362,0,0,186.362,1966.84,2136.98)">
                <path d="M0.717,-0L0.448,-0.383L0.689,-0.67L0.502,-0.67L0.223,-0.339L0.223,-0.67L0.058,-0.67L0.058,-0L0.223,-0L0.223,-0.115L0.341,-0.256L0.517,-0L0.717,-0Z" style="fill:rgb(235,235,235);fill-rule:nonzero;"/>
            </g>
        </g>
        <g transform="matrix(0.470588,0,0,0.941176,605.334,634.916)">
            <g transform="matrix(192,0,0,192,906.958,452.221)">
                <path d="M0.058,-0.67L0.058,-0L0.223,-0L0.223,-0.205L0.381,-0.205C0.536,-0.205 0.634,-0.298 0.634,-0.439C0.634,-0.577 0.539,-0.67 0.388,-0.67L0.058,-0.67ZM0.223,-0.343L0.223,-0.529L0.369,-0.529C0.433,-0.529 0.472,-0.491 0.472,-0.437C0.472,-0.38 0.433,-0.343 0.369,-0.343L0.223,-0.343Z" style="fill:rgb(179,43,229);fill-rule:nonzero;"/>
            </g>
            <g transform="matrix(192,0,0,192,1034.45,452.221)">
                <path d="M0.391,-0.509C0.309,-0.509 0.254,-0.466 0.218,-0.406L0.218,-0.502L0.058,-0.502L0.058,-0L0.218,-0L0.218,-0.157C0.218,-0.287 0.279,-0.345 0.391,-0.345L0.42,-0.345L0.427,-0.505C0.415,-0.508 0.405,-0.509 0.391,-0.509Z" style="fill:rgb(179,43,229);fill-rule:nonzero;"/>
            </g>
            <g transform="matrix(192,0,0,192,1117.85,452.221)">
                <path d="M0.303,-0.515C0.151,-0.515 0.025,-0.409 0.025,-0.251C0.025,-0.092 0.151,0.014 0.303,0.014C0.452,0.014 0.578,-0.092 0.578,-0.251C0.578,-0.409 0.452,-0.515 0.303,-0.515ZM0.303,-0.121C0.238,-0.121 0.179,-0.172 0.179,-0.251C0.179,-0.329 0.238,-0.381 0.303,-0.381C0.365,-0.381 0.424,-0.329 0.424,-0.251C0.424,-0.172 0.365,-0.121 0.303,-0.121Z" style="fill:rgb(179,43,229);fill-rule:nonzero;"/>
            </g>
            <g transform="matrix(192,0,0,192,1233.63,452.221)">
                <path d="M0.157,-0.741C0.103,-0.741 0.065,-0.699 0.065,-0.65C0.065,-0.599 0.103,-0.561 0.157,-0.561C0.211,-0.561 0.25,-0.599 0.25,-0.65C0.25,-0.699 0.211,-0.741 0.157,-0.741ZM-0.027,0.229C0,0.24 0.032,0.25 0.078,0.25C0.175,0.25 0.238,0.186 0.238,0.089L0.238,-0.502L0.079,-0.502L0.079,0.071C0.079,0.095 0.062,0.111 0.037,0.111C0.027,0.111 0.013,0.108 -0.003,0.103L-0.027,0.229Z" style="fill:rgb(179,43,229);fill-rule:nonzero;"/>
            </g>
            <g transform="matrix(192,0,0,192,1291.8,452.221)">
                <path d="M0.55,-0.251C0.547,-0.415 0.433,-0.517 0.291,-0.517C0.145,-0.517 0.025,-0.409 0.025,-0.251C0.025,-0.092 0.145,0.015 0.29,0.015C0.405,0.015 0.496,-0.036 0.539,-0.142L0.397,-0.171C0.37,-0.122 0.327,-0.113 0.29,-0.113C0.236,-0.113 0.195,-0.15 0.182,-0.21L0.55,-0.21L0.55,-0.251ZM0.291,-0.387C0.337,-0.387 0.377,-0.362 0.392,-0.308L0.185,-0.308C0.2,-0.359 0.246,-0.387 0.291,-0.387Z" style="fill:rgb(179,43,229);fill-rule:nonzero;"/>
            </g>
            <g transform="matrix(192,0,0,192,1402.2,452.221)">
                <path d="M0.299,-0.125C0.227,-0.125 0.179,-0.177 0.179,-0.251C0.179,-0.324 0.227,-0.377 0.299,-0.377C0.35,-0.377 0.391,-0.349 0.405,-0.288L0.555,-0.324C0.527,-0.442 0.421,-0.517 0.299,-0.517C0.149,-0.517 0.025,-0.409 0.025,-0.251C0.025,-0.092 0.149,0.015 0.299,0.015C0.424,0.015 0.53,-0.062 0.555,-0.181L0.408,-0.213C0.391,-0.152 0.35,-0.125 0.299,-0.125Z" style="fill:rgb(179,43,229);fill-rule:nonzero;"/>
            </g>
            <g transform="matrix(192,0,0,192,1513.56,452.221)">
                <path d="M0.393,-0.148C0.372,-0.136 0.342,-0.128 0.32,-0.128C0.278,-0.128 0.253,-0.149 0.253,-0.201L0.253,-0.375L0.401,-0.375L0.401,-0.502L0.253,-0.502L0.253,-0.67L0.093,-0.67L0.093,-0.502L0.002,-0.502L0.002,-0.375L0.093,-0.375L0.093,-0.185C0.093,-0.053 0.168,0.015 0.293,0.015C0.35,0.015 0.391,-0.001 0.43,-0.022L0.393,-0.148Z" style="fill:rgb(179,43,229);fill-rule:nonzero;"/>
            </g>
        </g>
    </g>
</svg>
