<?xml version="1.0" encoding="UTF-8" standalone="no"?>
<!DOCTYPE svg PUBLIC "-//W3C//DTD SVG 1.1//EN" "http://www.w3.org/Graphics/SVG/1.1/DTD/svg11.dtd">
<svg width="100%" height="100%" viewBox="0 0 1280 640" version="1.1" xmlns="http://www.w3.org/2000/svg" xmlns:xlink="http://www.w3.org/1999/xlink" xml:space="preserve" xmlns:serif="http://www.serif.com/" style="fill-rule:evenodd;clip-rule:evenodd;stroke-linejoin:round;stroke-miterlimit:2;">
    <g id="Artboard1" transform="matrix(1.84752,0,0,0.8,-1280,-480)">
        <rect x="692.82" y="600" width="692.82" height="800" style="fill:none;"/>
        <g id="LOGO" transform="matrix(0.56,0,0,0.56,409.741,366.5)">
            <g transform="matrix(0.54125,0,0,1.25309,340.889,-121.838)">
                <g id="bg" transform="matrix(1,0,0,0.997506,-0.179682,2.49377)">
                    <path d="M692.82,800L1039.23,600L1385.64,800.008L1385.64,1200L1039.23,1400L692.827,1200L692.82,800Z" style="fill:rgb(140,43,229);"/>
                </g>
                <g transform="matrix(0.866051,-0.498768,1.00003,0.575927,-0.210168,2.4645)">
                    <rect x="-400" y="1039.23" width="400" height="346.41" style="fill:rgb(140,43,229);"/>
                </g>
                <g transform="matrix(0.866051,-0.498768,5.55128e-17,1.15185,-0.210168,2.4645)">
                    <rect x="1200" y="1385.64" width="400" height="346.41" style="fill:rgb(179,43,229);"/>
                </g>
                <g transform="matrix(0.866051,0.498768,-5.55128e-17,1.15185,-0.210168,2.4645)">
                    <rect x="800" y="346.41" width="400" height="346.41" style="fill:rgb(124,16,187);"/>
                </g>
            </g>
            <g transform="matrix(2.34375,3.125,2.58763e-17,6.25,753.275,1031.24)">
                <path d="M0,5.68L0.003,0L22.561,0.045L22.636,22.621L0,22.618L0.033,8.46L16.996,8.493L16.954,5.632L0,5.68ZM16.987,16.968L16.99,14.074L5.667,14.11L5.685,16.959L16.987,16.968Z" style="fill:white;"/>
                <path d="M25.367,31.059L25.367,25.379L47.925,25.424L48,48L25.364,47.997L25.4,33.839L42.357,33.872L42.315,31.011L25.367,31.059ZM42.348,42.347L42.354,39.453L31.033,39.492L31.051,42.338L42.348,42.347Z" style="fill:white;"/>
                <path d="M31.058,0.008L31.096,16.964L48,16.963L47.989,22.614L25.373,22.621L25.364,0L31.058,0.008Z" style="fill:white;fill-rule:nonzero;"/>
                <path d="M22.636,25.379L22.598,47.966L17.011,48L16.918,30.972L14.212,30.972L14.14,48L8.472,48L8.5,30.972L5.741,30.972L5.703,48L0.022,48L0,25.393L22.636,25.379Z" style="fill:white;fill-rule:nonzero;"/>
            </g>
            <g transform="matrix(0.371761,-0.495682,2.06369e-17,0.991363,291.24,136.13)">
                <g transform="matrix(186.362,0,0,186.362,1702.3,2136.98)">
                    <path d="M0.372,0.018C0.527,0.018 0.644,-0.059 0.693,-0.198L0.546,-0.254C0.522,-0.173 0.459,-0.132 0.372,-0.132C0.251,-0.132 0.178,-0.211 0.178,-0.35C0.178,-0.489 0.249,-0.567 0.369,-0.567C0.454,-0.567 0.519,-0.527 0.546,-0.448L0.691,-0.505C0.64,-0.637 0.525,-0.717 0.369,-0.717C0.16,-0.717 0.021,-0.571 0.021,-0.348C0.021,-0.127 0.161,0.018 0.372,0.018Z" style="fill:rgb(235,235,235);fill-rule:nonzero;"/>
                </g>
                <g transform="matrix(186.362,0,0,186.362,1832.19,2136.98)">
                    <path d="M0.071,-0L0.28,-0C0.518,-0 0.648,-0.121 0.648,-0.343C0.648,-0.569 0.514,-0.697 0.281,-0.697L0.071,-0.697L0.071,-0ZM0.228,-0.144L0.228,-0.553L0.278,-0.553C0.409,-0.553 0.49,-0.511 0.49,-0.349C0.49,-0.181 0.406,-0.144 0.264,-0.144L0.228,-0.144Z" style="fill:rgb(235,235,235);fill-rule:nonzero;"/>
                </g>
                <g transform="matrix(186.362,0,0,186.362,1956.68,2136.98)">
                    <path d="M0.709,-0L0.44,-0.428L0.707,-0.697L0.501,-0.697L0.228,-0.41L0.228,-0.697L0.071,-0.697L0.071,-0L0.228,-0L0.228,-0.213L0.334,-0.32L0.527,-0L0.709,-0Z" style="fill:rgb(235,235,235);fill-rule:nonzero;"/>
                </g>
            </g>
            <g transform="matrix(0.541266,0,0,1.25,652.571,646.373)">
                <g transform="matrix(221.703,0,0,192,906.958,452.221)">
                    <path d="M0.337,-0.504C0.294,-0.504 0.242,-0.491 0.208,-0.456L0.208,-0.493L0.057,-0.493L0.057,0.204L0.208,0.204L0.208,-0.039C0.239,-0.008 0.29,0.011 0.337,0.011C0.444,0.011 0.538,-0.076 0.538,-0.245C0.538,-0.39 0.469,-0.504 0.337,-0.504ZM0.295,-0.12C0.22,-0.12 0.194,-0.177 0.194,-0.247C0.194,-0.317 0.217,-0.372 0.297,-0.372C0.357,-0.372 0.388,-0.332 0.388,-0.247C0.388,-0.161 0.357,-0.12 0.295,-0.12Z" style="fill:rgb(179,43,229);fill-rule:nonzero;"/>
                </g>
                <g transform="matrix(221.703,0,0,192,1030.22,452.221)">
                    <path d="M0.332,-0.504C0.279,-0.504 0.231,-0.47 0.208,-0.418L0.208,-0.493L0.056,-0.493L0.056,-0L0.207,-0L0.207,-0.229C0.207,-0.316 0.242,-0.354 0.295,-0.354C0.319,-0.354 0.345,-0.345 0.359,-0.336L0.431,-0.472C0.396,-0.495 0.366,-0.504 0.332,-0.504Z" style="fill:rgb(179,43,229);fill-rule:nonzero;"/>
                </g>
                <g transform="matrix(221.703,0,0,192,1116.23,452.221)">
                    <path d="M0.265,0.011C0.423,0.011 0.518,-0.112 0.518,-0.247C0.518,-0.383 0.424,-0.504 0.265,-0.504C0.104,-0.504 0.011,-0.382 0.011,-0.247C0.011,-0.112 0.105,0.011 0.265,0.011ZM0.265,-0.12C0.182,-0.12 0.162,-0.187 0.162,-0.247C0.162,-0.31 0.183,-0.373 0.265,-0.373C0.347,-0.373 0.367,-0.309 0.367,-0.247C0.367,-0.185 0.346,-0.12 0.265,-0.12Z" style="fill:rgb(179,43,229);fill-rule:nonzero;"/>
                </g>
                <g transform="matrix(221.703,0,0,192,1233.51,452.221)">
                    <path d="M0.056,-0.561L0.21,-0.561L0.21,-0.697L0.056,-0.697L0.056,-0.561ZM0.075,0.215C0.153,0.215 0.208,0.172 0.208,0.078L0.208,-0.493L0.057,-0.493L0.057,0.046C0.057,0.08 0.043,0.084 0.019,0.084C0.008,0.084 -0.006,0.082 -0.021,0.079L-0.02,0.199C0.01,0.209 0.046,0.215 0.075,0.215Z" style="fill:rgb(179,43,229);fill-rule:nonzero;"/>
                </g>
                <g transform="matrix(221.703,0,0,192,1292.27,452.221)">
                    <path d="M0.492,-0.242C0.492,-0.394 0.411,-0.504 0.257,-0.504C0.081,-0.504 0.014,-0.367 0.014,-0.244C0.014,-0.117 0.083,0.011 0.265,0.011C0.352,0.011 0.422,-0.022 0.474,-0.081L0.37,-0.173C0.342,-0.139 0.303,-0.125 0.266,-0.125C0.201,-0.125 0.171,-0.155 0.165,-0.194L0.489,-0.194C0.491,-0.215 0.492,-0.228 0.492,-0.242ZM0.163,-0.305C0.169,-0.337 0.192,-0.379 0.255,-0.379C0.305,-0.379 0.346,-0.351 0.348,-0.305L0.163,-0.305Z" style="fill:rgb(179,43,229);fill-rule:nonzero;"/>
                </g>
                <g transform="matrix(221.703,0,0,192,1404.67,452.221)">
                    <path d="M0.261,0.011C0.364,0.011 0.442,-0.047 0.475,-0.14L0.339,-0.193C0.33,-0.149 0.298,-0.12 0.259,-0.12C0.188,-0.12 0.167,-0.182 0.167,-0.245C0.167,-0.309 0.19,-0.373 0.26,-0.373C0.3,-0.373 0.331,-0.343 0.338,-0.297L0.48,-0.354C0.443,-0.455 0.364,-0.504 0.26,-0.504C0.092,-0.504 0.012,-0.375 0.012,-0.245C0.012,-0.119 0.089,0.011 0.261,0.011Z" style="fill:rgb(179,43,229);fill-rule:nonzero;"/>
                </g>
                <g transform="matrix(221.703,0,0,192,1511.53,452.221)">
                    <path d="M0.353,-0.376L0.353,-0.493L0.227,-0.493L0.227,-0.697L0.077,-0.586L0.077,-0.493L-0.002,-0.493L-0.002,-0.376L0.077,-0.376L0.077,-0.157C0.077,-0.031 0.16,0.011 0.253,0.011C0.288,0.011 0.32,0.006 0.352,-0.005L0.353,-0.122C0.331,-0.115 0.309,-0.111 0.289,-0.111C0.227,-0.111 0.227,-0.152 0.227,-0.171L0.227,-0.376L0.353,-0.376Z" style="fill:rgb(179,43,229);fill-rule:nonzero;"/>
                </g>
            </g>
        </g>
    </g>
</svg>
